<svg width="1600" height="1000" viewBox="0 0 1600 1000" fill="none" xmlns="http://www.w3.org/2000/svg">
  <rect width="1600" height="1000" fill="#C8A36A"/>
  <rect y="0" width="1600" height="244" fill="#AD7B49"/>
  <rect y="244" width="1600" height="516" fill="#845432"/>
  <rect y="760" width="1600" height="240" fill="#593721"/>

  <polygon points="84,126 466,126 430,96 48,96" fill="#86ACD4"/>
  <polygon points="84,126 84,382 48,352 48,96" fill="#5C7992"/>
  <polygon points="84,126 466,126 466,382 84,382" fill="#9FC1DE"/>
  <rect x="120" y="162" width="308" height="184" fill="#D9EBF7"/>
  <rect x="140" y="188" width="268" height="22" fill="#5A6C81"/>
  <rect x="140" y="224" width="60" height="88" fill="#F5FBFF"/>
  <rect x="216" y="224" width="60" height="88" fill="#F5FBFF"/>
  <rect x="292" y="224" width="60" height="88" fill="#F5FBFF"/>

  <polygon points="1144,126 1520,126 1486,96 1110,96" fill="#86ACD4"/>
  <polygon points="1144,126 1144,382 1110,352 1110,96" fill="#5C7992"/>
  <polygon points="1144,126 1520,126 1520,382 1144,382" fill="#9FC1DE"/>
  <rect x="1178" y="162" width="306" height="184" fill="#D9EBF7"/>
  <rect x="1198" y="188" width="266" height="22" fill="#5A6C81"/>
  <rect x="1198" y="224" width="60" height="88" fill="#F5FBFF"/>
  <rect x="1274" y="224" width="60" height="88" fill="#F5FBFF"/>
  <rect x="1350" y="224" width="60" height="88" fill="#F5FBFF"/>

  <polygon points="546,104 1060,104 1024,74 510,74" fill="#425566"/>
  <polygon points="546,104 546,236 510,206 510,74" fill="#2E3E4B"/>
  <polygon points="546,104 1060,104 1060,236 546,236" fill="#344553"/>
  <polygon points="592,140 1018,140 986,114 560,114" fill="#F0C75F"/>
  <polygon points="624,156 986,156 958,138 596,138" fill="#FFE49D"/>

  <polygon points="118,514 504,514 470,486 84,486" fill="#A47146"/>
  <polygon points="118,514 118,714 84,686 84,486" fill="#764D2E"/>
  <polygon points="118,514 504,514 504,714 118,714" fill="#8F603B"/>
  <polygon points="172,558 442,558 414,534 144,534" fill="#DDD1B7"/>
  <polygon points="172,558 172,678 144,654 144,534" fill="#B1A388"/>
  <polygon points="172,558 442,558 442,678 172,678" fill="#D0C2A6"/>
  <rect x="190" y="578" width="232" height="12" fill="#B5A78D"/>
  <rect x="190" y="612" width="232" height="12" fill="#B5A78D"/>
  <rect x="190" y="646" width="232" height="12" fill="#B5A78D"/>

  <polygon points="470,570 598,570 584,556 456,556" fill="#6D7F8F"/>
  <polygon points="470,570 470,640 456,626 456,556" fill="#4B5C69"/>
  <polygon points="470,570 598,570 598,640 470,640" fill="#5C6F7E"/>
  <rect x="492" y="588" width="84" height="18" fill="#CBE8FF"/>
  <rect x="518" y="606" width="32" height="10" fill="#2E3741"/>
  <rect x="516" y="640" width="36" height="54" fill="#50606D"/>
  <rect x="476" y="650" width="20" height="66" fill="#20252B"/>
  <rect x="498" y="650" width="20" height="66" fill="#20252B"/>
  <rect x="474" y="618" width="22" height="32" fill="#E7C39B"/>
  <rect x="498" y="592" width="18" height="24" fill="#E7C39B"/>
  <rect x="500" y="620" width="14" height="28" fill="#314353"/>
  <rect x="478" y="716" width="18" height="14" fill="#1B2025"/>
  <rect x="500" y="716" width="18" height="14" fill="#1B2025"/>

  <polygon points="570,518 1052,518 1016,490 534,490" fill="#6B849B"/>
  <polygon points="570,518 570,760 534,732 534,490" fill="#495D71"/>
  <polygon points="570,518 1052,518 1052,760 570,760" fill="#5A7188"/>
  <rect x="612" y="548" width="96" height="50" fill="#DEEAF3"/>
  <rect x="730" y="548" width="96" height="50" fill="#DEEAF3"/>
  <rect x="848" y="548" width="96" height="50" fill="#DEEAF3"/>
  <rect x="612" y="620" width="96" height="50" fill="#DEEAF3"/>
  <rect x="730" y="620" width="96" height="50" fill="#DEEAF3"/>
  <rect x="848" y="620" width="96" height="50" fill="#DEEAF3"/>
  <rect x="634" y="564" width="54" height="18" fill="#9AD9FF"/>
  <rect x="752" y="564" width="54" height="18" fill="#9AD9FF"/>
  <rect x="870" y="564" width="54" height="18" fill="#9AD9FF"/>
  <rect x="634" y="636" width="54" height="18" fill="#9AD9FF"/>
  <rect x="752" y="636" width="54" height="18" fill="#9AD9FF"/>
  <rect x="870" y="636" width="54" height="18" fill="#9AD9FF"/>
  <rect x="646" y="584" width="28" height="8" fill="#2E3741"/>
  <rect x="764" y="584" width="28" height="8" fill="#2E3741"/>
  <rect x="882" y="584" width="28" height="8" fill="#2E3741"/>
  <rect x="646" y="656" width="28" height="8" fill="#2E3741"/>
  <rect x="764" y="656" width="28" height="8" fill="#2E3741"/>
  <rect x="882" y="656" width="28" height="8" fill="#2E3741"/>

  <polygon points="1080,496 1432,496 1398,468 1046,468" fill="#95A9BC"/>
  <polygon points="1080,496 1080,726 1046,698 1046,468" fill="#6E8193"/>
  <polygon points="1080,496 1432,496 1432,726 1080,726" fill="#8097AB"/>
  <polygon points="1130,540 1378,540 1352,516 1104,516" fill="#C9D5DF"/>
  <polygon points="1130,540 1130,666 1104,642 1104,516" fill="#A4B2BF"/>
  <polygon points="1130,540 1378,540 1378,666 1130,666" fill="#BBC8D4"/>
  <rect x="1162" y="566" width="182" height="22" fill="#617486"/>
  <rect x="1182" y="604" width="36" height="70" fill="#E2B860"/>
  <rect x="1234" y="604" width="36" height="70" fill="#E2B860"/>
  <rect x="1286" y="604" width="36" height="70" fill="#E2B860"/>
  <rect x="1148" y="590" width="24" height="8" fill="#2E3741"/>
  <rect x="1200" y="590" width="24" height="8" fill="#2E3741"/>
  <rect x="1252" y="590" width="24" height="8" fill="#2E3741"/>

  <polygon points="110,764 1518,764 1484,736 76,736" fill="#5E3A22"/>
  <polygon points="110,764 110,804 76,776 76,736" fill="#432818"/>
  <polygon points="110,764 1518,764 1518,804 110,804" fill="#4F301D"/>
  <polygon points="146,824 1460,824 1424,792 110,792" fill="#664027"/>
  <polygon points="146,824 146,942 110,910 110,792" fill="#4D2F1B"/>
  <polygon points="146,824 1460,824 1460,942 146,942" fill="#5A3822"/>

  <polygon points="640,410 980,410 952,386 612,386" fill="#F0D899"/>
  <polygon points="640,410 640,432 612,408 612,386" fill="#B99B59"/>
  <polygon points="640,410 980,410 980,432 640,432" fill="#DDBE75"/>

  <polygon points="682,724 940,724 918,706 660,706" fill="#4D6072"/>
  <polygon points="682,724 682,754 660,736 660,706" fill="#344554"/>
  <polygon points="682,724 940,724 940,754 682,754" fill="#405463"/>
</svg>
