<svg width="1600" height="1000" viewBox="0 0 1600 1000" fill="none" xmlns="http://www.w3.org/2000/svg">
  <rect width="1600" height="1000" fill="#E8D39C"/>
  <rect y="0" width="1600" height="240" fill="#D6B879"/>
  <rect y="240" width="1600" height="520" fill="#B67949"/>
  <rect y="760" width="1600" height="240" fill="#805330"/>
  <rect x="120" y="122" width="276" height="220" fill="#8CB8E8"/>
  <rect x="150" y="150" width="216" height="160" fill="#D8F1FF"/>
  <rect x="1218" y="120" width="266" height="222" fill="#8CB8E8"/>
  <rect x="1248" y="148" width="206" height="162" fill="#D8F1FF"/>
  <rect x="548" y="110" width="514" height="106" fill="#6F4C30"/>
  <rect x="590" y="136" width="430" height="54" fill="#F1CB66"/>
  <rect x="142" y="518" width="364" height="174" fill="#A26D43"/>
  <rect x="172" y="492" width="304" height="40" fill="#C48A58"/>
  <rect x="204" y="560" width="236" height="96" fill="#E7D4A3"/>
  <rect x="602" y="564" width="420" height="150" fill="#6F462B"/>
  <rect x="632" y="534" width="360" height="48" fill="#8B5936"/>
  <rect x="650" y="594" width="320" height="90" fill="#9C6A45"/>
  <rect x="1110" y="506" width="306" height="204" fill="#9F6A41"/>
  <rect x="1140" y="474" width="244" height="42" fill="#C58B56"/>
  <rect x="1166" y="556" width="192" height="124" fill="#E6D19E"/>
  <rect x="80" y="744" width="1440" height="38" fill="#674229"/>
  <rect x="144" y="804" width="1310" height="118" fill="#6D4729"/>
</svg>
