<svg width="1600" height="1000" viewBox="0 0 1600 1000" fill="none" xmlns="http://www.w3.org/2000/svg">
  <rect width="1600" height="1000" fill="#D1AC69"/>
  <rect y="0" width="1600" height="240" fill="#B88A4E"/>
  <rect y="240" width="1600" height="520" fill="#98603A"/>
  <rect y="760" width="1600" height="240" fill="#6D4327"/>

  <polygon points="94,136 426,136 394,110 62,110" fill="#8CB6E2"/>
  <polygon points="94,136 94,362 62,336 62,110" fill="#6C8BAF"/>
  <polygon points="94,136 426,136 426,362 94,362" fill="#BDE4FF"/>
  <rect x="126" y="168" width="268" height="162" fill="#DFF2FF"/>
  <rect x="138" y="220" width="244" height="8" fill="#B8D8F0"/>

  <polygon points="1200,136 1518,136 1488,110 1170,110" fill="#8CB6E2"/>
  <polygon points="1200,136 1200,362 1170,336 1170,110" fill="#6C8BAF"/>
  <polygon points="1200,136 1518,136 1518,362 1200,362" fill="#BDE4FF"/>
  <rect x="1232" y="168" width="254" height="162" fill="#DFF2FF"/>
  <rect x="1244" y="220" width="232" height="8" fill="#B8D8F0"/>

  <polygon points="528,108 1088,108 1046,76 486,76" fill="#7A5333"/>
  <polygon points="528,108 528,228 486,196 486,76" fill="#5E4028"/>
  <polygon points="528,108 1088,108 1088,228 528,228" fill="#6A472C"/>
  <polygon points="574,138 1042,138 1004,112 536,112" fill="#F0C964"/>
  <polygon points="610,154 1006,154 974,136 578,136" fill="#FFE29A"/>

  <polygon points="142,516 540,516 508,490 110,490" fill="#B17B4A"/>
  <polygon points="142,516 142,712 110,686 110,490" fill="#805633"/>
  <polygon points="142,516 540,516 540,712 142,712" fill="#9D6A41"/>
  <polygon points="196,558 470,558 446,536 172,536" fill="#E7D19E"/>
  <polygon points="196,558 196,676 172,654 172,536" fill="#BEA77C"/>
  <polygon points="196,558 470,558 470,676 196,676" fill="#DBC590"/>
  <rect x="214" y="576" width="238" height="12" fill="#C4AF82"/>
  <rect x="214" y="610" width="238" height="12" fill="#C4AF82"/>
  <rect x="214" y="644" width="238" height="12" fill="#C4AF82"/>

  <polygon points="578,560 1058,560 1024,530 544,530" fill="#7B4E2E"/>
  <polygon points="578,560 578,736 544,706 544,530" fill="#613C23"/>
  <polygon points="578,560 1058,560 1058,736 578,736" fill="#6F462A"/>
  <polygon points="636,602 992,602 964,576 608,576" fill="#9B6640"/>
  <polygon points="636,602 636,700 608,674 608,576" fill="#774A2F"/>
  <polygon points="636,602 992,602 992,700 636,700" fill="#8D5B3A"/>

  <polygon points="1084,504 1426,504 1392,474 1050,474" fill="#AD7749"/>
  <polygon points="1084,504 1084,724 1050,694 1050,474" fill="#805633"/>
  <polygon points="1084,504 1426,504 1426,724 1084,724" fill="#99653E"/>
  <polygon points="1142,556 1360,556 1336,534 1118,534" fill="#E7D19E"/>
  <polygon points="1142,556 1142,688 1118,666 1118,534" fill="#BDA77B"/>
  <polygon points="1142,556 1360,556 1360,688 1142,688" fill="#DBC692"/>
  <rect x="1158" y="574" width="190" height="12" fill="#C2AD81"/>
  <rect x="1158" y="608" width="190" height="12" fill="#C2AD81"/>
  <rect x="1158" y="642" width="190" height="12" fill="#C2AD81"/>

  <polygon points="86,764 1514,764 1480,738 52,738" fill="#6A4328"/>
  <polygon points="86,764 86,802 52,776 52,738" fill="#512F1C"/>
  <polygon points="86,764 1514,764 1514,802 86,802" fill="#5B3822"/>
  <polygon points="148,820 1458,820 1422,790 112,790" fill="#6F4729"/>
  <polygon points="148,820 148,940 112,910 112,790" fill="#56351F"/>
  <polygon points="148,820 1458,820 1458,940 148,940" fill="#654027"/>

  <polygon points="154,404 194,404 182,392 142,392" fill="#7A4E30"/>
  <polygon points="154,404 154,484 142,472 142,392" fill="#603C25"/>
  <polygon points="154,404 194,404 194,484 154,484" fill="#6F462B"/>
  <polygon points="474,404 514,404 502,392 462,392" fill="#7A4E30"/>
  <polygon points="474,404 474,484 462,472 462,392" fill="#603C25"/>
  <polygon points="474,404 514,404 514,484 474,484" fill="#6F462B"/>

  <polygon points="1100,394 1136,394 1124,382 1088,382" fill="#7A4E30"/>
  <polygon points="1100,394 1100,462 1088,450 1088,382" fill="#603C25"/>
  <polygon points="1100,394 1136,394 1136,462 1100,462" fill="#6F462B"/>
  <polygon points="1350,394 1386,394 1374,382 1338,382" fill="#7A4E30"/>
  <polygon points="1350,394 1350,462 1338,450 1338,382" fill="#603C25"/>
  <polygon points="1350,394 1386,394 1386,462 1350,462" fill="#6F462B"/>

  <polygon points="628,446 968,446 942,424 602,424" fill="#F0D89B"/>
  <polygon points="628,446 628,466 602,444 602,424" fill="#B69858"/>
  <polygon points="628,446 968,446 968,466 628,466" fill="#DDBE76"/>

  <polygon points="690,732 942,732 920,714 668,714" fill="#603C24"/>
  <polygon points="690,732 690,760 668,742 668,714" fill="#462C19"/>
  <polygon points="690,732 942,732 942,760 690,760" fill="#52331F"/>

  <polygon points="246,530 290,530 274,514 230,514" fill="#FFF6D8"/>
  <polygon points="296,530 340,530 324,514 280,514" fill="#C7D9E8"/>
  <polygon points="346,530 390,530 374,514 330,514" fill="#E6B970"/>

  <polygon points="1188,530 1222,530 1210,514 1176,514" fill="#98C778"/>
  <polygon points="1226,530 1260,530 1248,514 1214,514" fill="#7CAC60"/>

  <rect x="900" y="582" width="50" height="18" fill="#FFF3CB"/>
  <rect x="954" y="582" width="28" height="18" fill="#D5E6F4"/>
  <rect x="694" y="564" width="214" height="12" fill="#805333"/>
  <rect x="706" y="578" width="188" height="8" fill="#F0D89D"/>
  <rect x="110" y="710" width="96" height="22" fill="#684229"/>
  <rect x="1318" y="718" width="114" height="22" fill="#684229"/>
</svg>
