<svg width="1600" height="1000" viewBox="0 0 1600 1000" fill="none" xmlns="http://www.w3.org/2000/svg">
  <rect width="1600" height="1000" fill="#F0D8A4"/>
  <rect y="0" width="1600" height="260" fill="#E3C88E"/>
  <rect y="260" width="1600" height="540" fill="#C59058"/>
  <rect y="800" width="1600" height="200" fill="#8B5D37"/>
  <rect x="116" y="126" width="228" height="240" fill="#9CC9E8"/>
  <rect x="144" y="154" width="172" height="184" fill="#CFEAFF"/>
  <rect x="1256" y="126" width="228" height="240" fill="#9CC9E8"/>
  <rect x="1284" y="154" width="172" height="184" fill="#CFEAFF"/>
  <rect x="634" y="112" width="332" height="188" fill="#A66B43"/>
  <rect x="670" y="148" width="260" height="116" fill="#6B4130"/>
  <rect x="718" y="156" width="164" height="34" fill="#C58D59"/>
  <rect x="238" y="510" width="280" height="178" fill="#A26F45"/>
  <rect x="268" y="484" width="220" height="34" fill="#C48C59"/>
  <rect x="292" y="544" width="172" height="108" fill="#EAD8A8"/>
  <rect x="1054" y="498" width="274" height="222" fill="#A36E44"/>
  <rect x="1086" y="468" width="210" height="40" fill="#C38B57"/>
  <rect x="1106" y="546" width="170" height="122" fill="#E5D19D"/>
  <rect x="674" y="512" width="254" height="230" fill="#7E5233"/>
  <rect x="706" y="544" width="190" height="166" fill="#915E3A"/>
  <rect x="744" y="590" width="114" height="120" fill="#5E3723"/>
  <rect x="80" y="780" width="1440" height="34" fill="#6C462B"/>
  <rect x="140" y="826" width="1320" height="112" fill="#704829"/>
</svg>
