<svg width="1600" height="1000" viewBox="0 0 1600 1000" fill="none" xmlns="http://www.w3.org/2000/svg">
  <rect width="1600" height="1000" fill="#D4AE6E"/>
  <rect y="0" width="1600" height="250" fill="#C08C4B"/>
  <rect y="250" width="1600" height="530" fill="#99623A"/>
  <rect y="780" width="1600" height="220" fill="#6A4126"/>

  <polygon points="88,144 394,144 362,116 56,116" fill="#8EB9E3"/>
  <polygon points="88,144 88,370 56,342 56,116" fill="#6D8DAF"/>
  <polygon points="88,144 394,144 394,370 88,370" fill="#C0E4FF"/>
  <rect x="120" y="176" width="244" height="162" fill="#DFF3FF"/>
  <rect x="132" y="230" width="220" height="8" fill="#B6D8EF"/>

  <polygon points="1222,144 1520,144 1490,116 1192,116" fill="#8EB9E3"/>
  <polygon points="1222,144 1222,370 1192,342 1192,116" fill="#6D8DAF"/>
  <polygon points="1222,144 1520,144 1520,370 1222,370" fill="#C0E4FF"/>
  <rect x="1252" y="176" width="240" height="162" fill="#DFF3FF"/>
  <rect x="1264" y="230" width="216" height="8" fill="#B6D8EF"/>

  <polygon points="606,110 998,110 968,86 576,86" fill="#B57B4E"/>
  <polygon points="606,110 606,314 576,290 576,86" fill="#875636"/>
  <polygon points="606,110 998,110 998,314 606,314" fill="#975E3A"/>
  <polygon points="646,144 960,144 932,124 618,124" fill="#6F4430"/>
  <rect x="708" y="156" width="192" height="34" fill="#C48E5C"/>
  <rect x="726" y="194" width="158" height="12" fill="#E7D07C"/>

  <polygon points="162,514 540,514 508,488 130,488" fill="#9C6941"/>
  <polygon points="162,514 162,742 130,714 130,488" fill="#754B2F"/>
  <polygon points="162,514 540,514 540,742 162,742" fill="#8B5D39"/>
  <polygon points="194,558 332,558 316,542 178,542" fill="#506376"/>
  <polygon points="194,558 194,662 178,646 178,542" fill="#3B4955"/>
  <polygon points="194,558 332,558 332,662 194,662" fill="#445463"/>
  <polygon points="348,582 432,582 418,568 334,568" fill="#C08A57"/>
  <polygon points="348,582 348,636 334,622 334,568" fill="#986A43"/>
  <polygon points="348,582 432,582 432,636 348,636" fill="#AE7A4D"/>
  <rect x="356" y="594" width="60" height="14" fill="#F5E0AF"/>
  <polygon points="246,606 282,606 276,600 240,600" fill="#F0A1A6"/>
  <polygon points="246,606 246,626 240,620 240,600" fill="#CF7D84"/>
  <polygon points="246,606 282,606 282,626 246,626" fill="#DF8D93"/>
  <rect x="254" y="596" width="8" height="8" fill="#F0A1A6"/>
  <rect x="262" y="592" width="6" height="6" fill="#CF7D84"/>
  <rect x="212" y="680" width="170" height="18" fill="#E6B768"/>
  <rect x="228" y="698" width="138" height="18" fill="#B54D44"/>

  <polygon points="560,566 850,566 822,540 532,540" fill="#9B6740"/>
  <polygon points="560,566 560,744 532,718 532,540" fill="#734A2E"/>
  <polygon points="560,566 850,566 850,744 560,744" fill="#895835"/>
  <polygon points="626,602 788,602 768,584 606,584" fill="#E4D09F"/>
  <polygon points="626,602 626,668 606,650 606,584" fill="#BCA57B"/>
  <polygon points="626,602 788,602 788,668 626,668" fill="#D7C08E"/>
  <rect x="668" y="610" width="80" height="58" fill="#55626C"/>
  <rect x="676" y="618" width="64" height="42" fill="#78838C"/>
  <circle cx="708" cy="639" r="12" fill="#C8D2D9"/>
  <rect x="706" y="624" width="4" height="30" fill="#78838C"/>
  <rect x="693" y="637" width="30" height="4" fill="#78838C"/>
  <rect x="660" y="670" width="96" height="12" fill="#8D5C39"/>
  <rect x="694" y="682" width="28" height="58" fill="#8D5C39"/>

  <polygon points="930,492 1368,492 1334,466 896,466" fill="#B07C4E"/>
  <polygon points="930,492 930,734 896,708 896,466" fill="#7E5636"/>
  <polygon points="930,492 1368,492 1368,734 930,734" fill="#9C6D44"/>
  <polygon points="962,534 1104,534 1084,514 942,514" fill="#C28C59"/>
  <polygon points="962,534 962,654 942,634 942,514" fill="#976843"/>
  <polygon points="962,534 1104,534 1104,654 962,654" fill="#AF7B4D"/>
  <rect x="980" y="550" width="106" height="20" fill="#F6E0AF"/>
  <rect x="1000" y="578" width="66" height="16" fill="#D6A054"/>
  <polygon points="1120,530 1298,530 1278,512 1100,512" fill="#8D5C39"/>
  <polygon points="1120,530 1120,686 1100,668 1100,512" fill="#6A4329"/>
  <polygon points="1120,530 1298,530 1298,686 1120,686" fill="#7E5132"/>
  <rect x="1146" y="554" width="40" height="32" fill="#EAC56E"/>
  <rect x="1204" y="554" width="40" height="32" fill="#EAC56E"/>
  <rect x="1140" y="600" width="112" height="82" fill="#5B3823"/>

  <polygon points="918,742 1368,742 1334,716 884,716" fill="#6A4327"/>
  <polygon points="918,742 918,774 884,748 884,716" fill="#4E311D"/>
  <polygon points="918,742 1368,742 1368,774 918,774" fill="#5B3A24"/>

  <polygon points="124,800 1480,800 1450,776 94,776" fill="#664129"/>
  <polygon points="124,800 124,840 94,816 94,776" fill="#4D301D"/>
  <polygon points="124,800 1480,800 1480,840 124,840" fill="#593823"/>
  <polygon points="154,848 1448,848 1416,820 122,820" fill="#71492A"/>
  <polygon points="154,848 154,938 122,910 122,820" fill="#573620"/>
  <polygon points="154,848 1448,848 1448,938 154,938" fill="#654028"/>

  <polygon points="748,252 840,252 828,240 736,240" fill="#E4C36A"/>
  <polygon points="748,252 748,284 736,272 736,240" fill="#AD8137"/>
  <polygon points="748,252 840,252 840,284 748,284" fill="#D2A857"/>

  <polygon points="244,516 280,516 268,502 232,502" fill="#93BF74"/>
  <polygon points="244,516 244,552 232,540 232,502" fill="#709657"/>
  <polygon points="244,516 280,516 280,552 244,552" fill="#84AF64"/>

  <polygon points="1302,524 1338,524 1326,510 1290,510" fill="#93BF74"/>
  <polygon points="1302,524 1302,560 1290,548 1290,510" fill="#709657"/>
  <polygon points="1302,524 1338,524 1338,560 1302,560" fill="#84AF64"/>
</svg>
