<svg width="1600" height="1000" viewBox="0 0 1600 1000" fill="none" xmlns="http://www.w3.org/2000/svg">
  <rect width="1600" height="1000" fill="#D4AE6E"/>
  <rect y="0" width="1600" height="250" fill="#C08C4B"/>
  <rect y="250" width="1600" height="530" fill="#99623A"/>
  <rect y="780" width="1600" height="220" fill="#6A4126"/>

  <polygon points="88,144 394,144 362,116 56,116" fill="#8EB9E3"/>
  <polygon points="88,144 88,370 56,342 56,116" fill="#6D8DAF"/>
  <polygon points="88,144 394,144 394,370 88,370" fill="#C0E4FF"/>
  <rect x="120" y="176" width="244" height="162" fill="#DFF3FF"/>
  <rect x="132" y="230" width="220" height="8" fill="#B6D8EF"/>

  <polygon points="1222,144 1520,144 1490,116 1192,116" fill="#8EB9E3"/>
  <polygon points="1222,144 1222,370 1192,342 1192,116" fill="#6D8DAF"/>
  <polygon points="1222,144 1520,144 1520,370 1222,370" fill="#C0E4FF"/>
  <rect x="1252" y="176" width="240" height="162" fill="#DFF3FF"/>
  <rect x="1264" y="230" width="216" height="8" fill="#B6D8EF"/>

  <polygon points="606,110 998,110 968,86 576,86" fill="#B57B4E"/>
  <polygon points="606,110 606,314 576,290 576,86" fill="#875636"/>
  <polygon points="606,110 998,110 998,314 606,314" fill="#975E3A"/>
  <polygon points="646,144 960,144 932,124 618,124" fill="#6F4430"/>
  <rect x="708" y="156" width="192" height="34" fill="#C48E5C"/>
  <rect x="726" y="194" width="158" height="12" fill="#E7D07C"/>

  <polygon points="164,516 530,516 500,490 134,490" fill="#9D6A42"/>
  <polygon points="164,516 164,738 134,712 134,490" fill="#754C2F"/>
  <polygon points="164,516 530,516 530,738 164,738" fill="#8B5D39"/>
  <polygon points="198,560 328,560 314,544 184,544" fill="#506376"/>
  <polygon points="198,560 198,658 184,644 184,544" fill="#394754"/>
  <polygon points="198,560 328,560 328,658 198,658" fill="#435463"/>
  <rect x="336" y="584" width="92" height="34" fill="#C18D59"/>
  <rect x="350" y="620" width="64" height="16" fill="#F6E0AF"/>
  <rect x="214" y="674" width="164" height="18" fill="#E6B768"/>
  <rect x="228" y="692" width="136" height="18" fill="#B54D44"/>

  <polygon points="566,572 850,572 822,546 538,546" fill="#9E6A42"/>
  <polygon points="566,572 566,744 538,718 538,546" fill="#744B2E"/>
  <polygon points="566,572 850,572 850,744 566,744" fill="#885836"/>
  <polygon points="628,604 788,604 768,586 608,586" fill="#E5D19F"/>
  <polygon points="628,604 628,666 608,648 608,586" fill="#BCA57A"/>
  <polygon points="628,604 788,604 788,666 628,666" fill="#D7C08E"/>
  <rect x="662" y="668" width="98" height="12" fill="#8D5D3A"/>
  <rect x="696" y="680" width="30" height="56" fill="#8D5D3A"/>

  <polygon points="922,494 1362,494 1328,468 888,468" fill="#B07C4E"/>
  <polygon points="922,494 922,734 888,708 888,468" fill="#7E5636"/>
  <polygon points="922,494 1362,494 1362,734 922,734" fill="#9C6D44"/>
  <polygon points="962,544 1082,544 1062,524 942,524" fill="#EAD5A6"/>
  <polygon points="962,544 962,654 942,634 942,524" fill="#C4AD81"/>
  <polygon points="962,544 1082,544 1082,654 962,654" fill="#DEC894"/>
  <polygon points="1108,540 1288,540 1268,522 1088,522" fill="#A26C43"/>
  <polygon points="1108,540 1108,650 1088,632 1088,522" fill="#7A5132"/>
  <polygon points="1108,540 1288,540 1288,650 1108,650" fill="#8F5E3A"/>
  <rect x="1134" y="568" width="60" height="34" fill="#E8C56D"/>
  <rect x="1206" y="568" width="54" height="34" fill="#E8C56D"/>
  <rect x="1168" y="610" width="56" height="78" fill="#6B4328"/>

  <polygon points="922,742 1368,742 1332,716 886,716" fill="#6A4327"/>
  <polygon points="922,742 922,774 886,748 886,716" fill="#4E311D"/>
  <polygon points="922,742 1368,742 1368,774 922,774" fill="#5B3A24"/>

  <polygon points="124,800 1480,800 1450,776 94,776" fill="#664129"/>
  <polygon points="124,800 124,840 94,816 94,776" fill="#4D301D"/>
  <polygon points="124,800 1480,800 1480,840 124,840" fill="#593823"/>
  <polygon points="154,848 1448,848 1416,820 122,820" fill="#71492A"/>
  <polygon points="154,848 154,938 122,910 122,820" fill="#573620"/>
  <polygon points="154,848 1448,848 1448,938 154,938" fill="#654028"/>

  <polygon points="750,252 842,252 830,240 738,240" fill="#E4C36A"/>
  <polygon points="750,252 750,284 738,272 738,240" fill="#AD8137"/>
  <polygon points="750,252 842,252 842,284 750,284" fill="#D2A857"/>

  <polygon points="246,518 282,518 270,504 234,504" fill="#93BF74"/>
  <polygon points="246,518 246,552 234,540 234,504" fill="#709657"/>
  <polygon points="246,518 282,518 282,552 246,552" fill="#84AF64"/>

  <polygon points="1302,526 1338,526 1326,512 1290,512" fill="#93BF74"/>
  <polygon points="1302,526 1302,560 1290,548 1290,512" fill="#709657"/>
  <polygon points="1302,526 1338,526 1338,560 1302,560" fill="#84AF64"/>
</svg>
