<svg width="1600" height="1000" viewBox="0 0 1600 1000" fill="none" xmlns="http://www.w3.org/2000/svg">
  <rect width="1600" height="1000" fill="#72B6F2"/>
  <rect y="250" width="1600" height="120" fill="#9BDEFF"/>
  <rect y="370" width="1600" height="120" fill="#88D06F"/>
  <rect y="490" width="1600" height="170" fill="#70BA5D"/>
  <rect y="660" width="1600" height="340" fill="#599648"/>

  <rect x="102" y="166" width="168" height="42" fill="#F8FCFF"/>
  <rect x="170" y="142" width="92" height="24" fill="#F8FCFF"/>
  <rect x="1198" y="150" width="188" height="42" fill="#F8FCFF"/>
  <rect x="1268" y="124" width="104" height="26" fill="#F8FCFF"/>
  <rect x="676" y="126" width="156" height="36" fill="#F8FCFF"/>
  <rect x="742" y="106" width="88" height="20" fill="#F8FCFF"/>

  <polygon points="136,588 370,588 320,548 86,548" fill="#D58E59"/>
  <polygon points="136,588 136,790 86,750 86,548" fill="#8B603A"/>
  <polygon points="136,588 370,588 370,790 136,790" fill="#B57949"/>
  <polygon points="162,548 344,548 302,500 120,500" fill="#F1C56A"/>
  <polygon points="202,500 300,500 270,464 172,464" fill="#825E3E"/>
  <rect x="178" y="636" width="60" height="58" fill="#FFF0D4"/>
  <rect x="264" y="636" width="56" height="58" fill="#FFF0D4"/>
  <rect x="228" y="690" width="48" height="100" fill="#654127"/>
  <rect x="244" y="708" width="18" height="44" fill="#8D5C39"/>

  <polygon points="446,698 500,698 490,688 436,688" fill="#D63B40"/>
  <polygon points="446,698 446,786 436,776 436,688" fill="#8F2326"/>
  <polygon points="446,698 500,698 500,786 446,786" fill="#B62E33"/>
  <polygon points="454,688 492,688 486,674 448,674" fill="#F05F64"/>
  <rect x="462" y="726" width="22" height="14" fill="#F7E2B2"/>

  <polygon points="556,666 626,666 614,654 544,654" fill="#6E89A0"/>
  <polygon points="556,666 556,760 544,748 544,654" fill="#4E657A"/>
  <polygon points="556,666 626,666 626,760 556,760" fill="#5E778E"/>
  <polygon points="566,624 614,624 604,614 556,614" fill="#D5A477"/>
  <polygon points="566,624 566,666 556,656 556,614" fill="#A87C57"/>
  <polygon points="566,624 614,624 614,666 566,666" fill="#BF9168"/>
  <rect x="548" y="678" width="18" height="56" fill="#BF9168"/>
  <rect x="614" y="678" width="18" height="56" fill="#BF9168"/>
  <rect x="540" y="692" width="16" height="18" fill="#DAB08B"/>
  <rect x="626" y="692" width="16" height="18" fill="#DAB08B"/>
  <rect x="578" y="636" width="10" height="8" fill="#2F3B48"/>
  <rect x="594" y="636" width="10" height="8" fill="#2F3B48"/>
  <rect x="580" y="652" width="24" height="6" fill="#8A5A3A"/>
  <rect x="570" y="760" width="20" height="64" fill="#35424F"/>
  <rect x="594" y="760" width="20" height="64" fill="#35424F"/>
  <rect x="564" y="824" width="24" height="18" fill="#1F2730"/>
  <rect x="596" y="824" width="24" height="18" fill="#1F2730"/>
  <rect x="570" y="678" width="42" height="58" fill="#5F7A8E"/>
  <rect x="580" y="688" width="22" height="18" fill="#D8EEF8"/>
  <rect x="578" y="712" width="26" height="8" fill="#A4C0D4"/>
  <polygon points="632,708 660,708 654,702 626,702" fill="#8E5D37"/>
  <polygon points="632,708 632,742 626,736 626,702" fill="#684127"/>
  <polygon points="632,708 660,708 660,742 632,742" fill="#7A4D2F"/>
  <rect x="636" y="714" width="20" height="22" fill="#E8D4A1"/>
  <rect x="638" y="716" width="16" height="18" fill="#C78E53"/>
  <rect x="572" y="596" width="18" height="10" fill="#E8EDF4"/>
  <rect x="590" y="582" width="22" height="12" fill="#D9E2EB"/>
  <rect x="584" y="568" width="14" height="10" fill="#EEF4FA"/>

  <polygon points="884,522 1298,522 1242,480 828,480" fill="#A0B6CA"/>
  <polygon points="884,522 884,834 828,792 828,480" fill="#657D94"/>
  <polygon points="884,522 1298,522 1298,834 884,834" fill="#7F9CB3"/>
  <polygon points="934,480 1260,480 1218,446 892,446" fill="#4F6173"/>
  <rect x="940" y="556" width="60" height="64" fill="#E3F5FF"/>
  <rect x="1026" y="556" width="60" height="64" fill="#E3F5FF"/>
  <rect x="1112" y="556" width="60" height="64" fill="#E3F5FF"/>
  <rect x="1198" y="556" width="60" height="64" fill="#E3F5FF"/>
  <rect x="940" y="646" width="60" height="64" fill="#E3F5FF"/>
  <rect x="1026" y="646" width="60" height="64" fill="#E3F5FF"/>
  <rect x="1112" y="646" width="60" height="64" fill="#E3F5FF"/>
  <rect x="1198" y="646" width="60" height="64" fill="#E3F5FF"/>
  <rect x="1062" y="716" width="74" height="118" fill="#41586C"/>
  <rect x="872" y="844" width="434" height="24" fill="#465B6E"/>

  <polygon points="70,770 172,770 150,744 48,744" fill="#74C36C"/>
  <polygon points="70,770 70,900 48,874 48,744" fill="#4B7D43"/>
  <polygon points="70,770 172,770 172,900 70,900" fill="#5BA451"/>
  <polygon points="92,744 152,744 136,724 76,724" fill="#90DF86"/>
  <rect x="106" y="900" width="28" height="64" fill="#65482A"/>

  <polygon points="1392,770 1492,770 1470,744 1370,744" fill="#74C36C"/>
  <polygon points="1392,770 1392,900 1370,874 1370,744" fill="#4B7D43"/>
  <polygon points="1392,770 1492,770 1492,900 1392,900" fill="#5BA451"/>
  <polygon points="1412,744 1472,744 1456,724 1396,724" fill="#90DF86"/>
  <rect x="1426" y="900" width="28" height="64" fill="#65482A"/>
</svg>
