<svg width="1600" height="1000" viewBox="0 0 1600 1000" fill="none" xmlns="http://www.w3.org/2000/svg">
  <rect width="1600" height="1000" fill="#79BDF3"/>
  <rect y="260" width="1600" height="120" fill="#9AD8FF"/>
  <rect y="380" width="1600" height="150" fill="#8ACE70"/>
  <rect y="530" width="1600" height="160" fill="#72BB5E"/>
  <rect y="690" width="1600" height="310" fill="#5A9A48"/>

  <rect x="110" y="170" width="170" height="40" fill="#F8F9FD"/>
  <rect x="180" y="145" width="90" height="25" fill="#F8F9FD"/>
  <rect x="1230" y="150" width="190" height="42" fill="#F8F9FD"/>
  <rect x="1290" y="122" width="110" height="28" fill="#F8F9FD"/>

  <polygon points="1000,705 1410,705 1320,640 910,640" fill="#D7B46F"/>
  <polygon points="1000,705 1000,855 910,790 910,640" fill="#A97D43"/>
  <polygon points="1000,705 1410,705 1410,855 1000,855" fill="#BF8F51"/>
  <rect x="1032" y="730" width="60" height="22" fill="#EFD79C"/>
  <rect x="1106" y="730" width="60" height="22" fill="#EFD79C"/>
  <rect x="1180" y="730" width="60" height="22" fill="#EFD79C"/>
  <rect x="1254" y="730" width="60" height="22" fill="#EFD79C"/>

  <polygon points="420,780 930,780 830,720 320,720" fill="#CEAC64"/>
  <polygon points="420,780 420,920 320,860 320,720" fill="#916B3E"/>
  <polygon points="420,780 930,780 930,920 420,920" fill="#AF8451"/>
  <rect x="478" y="802" width="62" height="20" fill="#EFD9A4"/>
  <rect x="560" y="802" width="62" height="20" fill="#EFD9A4"/>
  <rect x="642" y="802" width="62" height="20" fill="#EFD9A4"/>
  <rect x="724" y="802" width="62" height="20" fill="#EFD9A4"/>
  <rect x="806" y="802" width="62" height="20" fill="#EFD9A4"/>

  <polygon points="140,595 360,595 310,555 90,555" fill="#D38C57"/>
  <polygon points="140,595 140,785 90,745 90,555" fill="#8C603A"/>
  <polygon points="140,595 360,595 360,785 140,785" fill="#B37747"/>
  <polygon points="160,555 340,555 300,505 120,505" fill="#F0C46C"/>
  <polygon points="200,505 300,505 270,470 170,470" fill="#8D6947"/>
  <rect x="180" y="635" width="58" height="56" fill="#FFF0D4"/>
  <rect x="266" y="635" width="54" height="56" fill="#FFF0D4"/>
  <rect x="228" y="687" width="48" height="98" fill="#654126"/>
  <rect x="244" y="705" width="18" height="44" fill="#8C5D3A"/>

  <polygon points="595,585 1030,585 970,535 535,535" fill="#CC8353"/>
  <polygon points="595,585 595,835 535,785 535,535" fill="#855A38"/>
  <polygon points="595,585 1030,585 1030,835 595,835" fill="#B06C42"/>
  <polygon points="655,535 970,535 918,470 603,470" fill="#EEBF61"/>
  <polygon points="720,470 905,470 858,430 673,430" fill="#7E5E3F"/>
  <rect x="695" y="640" width="80" height="62" fill="#FFF0CA"/>
  <rect x="850" y="640" width="80" height="62" fill="#FFF0CA"/>
  <rect x="782" y="700" width="74" height="135" fill="#5D3929"/>
  <rect x="807" y="722" width="24" height="48" fill="#8C5D44"/>
  <polygon points="740,565 908,565 882,545 714,545" fill="#674A31"/>
  <rect x="753" y="551" width="138" height="10" fill="#EDD79C"/>

  <polygon points="1120,610 1330,610 1288,575 1078,575" fill="#76B58C"/>
  <polygon points="1120,610 1120,790 1078,755 1078,575" fill="#4F7B62"/>
  <polygon points="1120,610 1330,610 1330,790 1120,790" fill="#649C7A"/>
  <polygon points="1152,575 1304,575 1276,540 1124,540" fill="#9DD0AA"/>
  <rect x="1175" y="645" width="96" height="26" fill="#E6FFF0"/>
  <rect x="1210" y="672" width="26" height="118" fill="#446D54"/>

  <polygon points="1430,560 1545,560 1510,532 1395,532" fill="#C88756"/>
  <polygon points="1430,560 1430,760 1395,732 1395,532" fill="#714A2C"/>
  <polygon points="1430,560 1545,560 1545,760 1430,760" fill="#A46940"/>
  <rect x="1464" y="612" width="34" height="148" fill="#6B4327"/>

  <polygon points="1108,842 1416,842 1336,794 1028,794" fill="#3A90CF"/>
  <polygon points="1108,842 1108,930 1028,882 1028,794" fill="#215E8C"/>
  <polygon points="1108,842 1416,842 1416,930 1108,930" fill="#2D79B3"/>
  <rect x="1162" y="822" width="214" height="18" fill="#B8E9FF"/>
  <rect x="1202" y="930" width="142" height="24" fill="#24658E"/>

  <polygon points="94,792 180,792 160,772 74,772" fill="#5ABD68"/>
  <polygon points="94,792 94,864 74,844 74,772" fill="#46894C"/>
  <polygon points="94,792 180,792 180,864 94,864" fill="#4FA857"/>
  <polygon points="108,770 166,770 150,748 92,748" fill="#7FE28B"/>
  <rect x="122" y="864" width="24" height="66" fill="#66492B"/>

  <polygon points="1386,792 1472,792 1450,772 1364,772" fill="#5ABD68"/>
  <polygon points="1386,792 1386,864 1364,844 1364,772" fill="#46894C"/>
  <polygon points="1386,792 1472,792 1472,864 1386,864" fill="#4FA857"/>
  <polygon points="1400,770 1458,770 1442,748 1384,748" fill="#7FE28B"/>
  <rect x="1414" y="864" width="24" height="66" fill="#66492B"/>

  <polygon points="1035,815 1088,815 1076,800 1023,800" fill="#E2B768"/>
  <polygon points="1035,815 1035,904 1023,892 1023,800" fill="#714E31"/>
  <polygon points="1035,815 1088,815 1088,904 1035,904" fill="#936840"/>
  <polygon points="1002,800 1108,800 1088,782 982,782" fill="#8C6742"/>

  <rect x="1210" y="740" width="28" height="12" fill="#E9FDFF"/>
  <rect x="1274" y="764" width="36" height="12" fill="#E9FDFF"/>
  <rect x="1338" y="722" width="26" height="12" fill="#E9FDFF"/>
</svg>
