<svg width="1600" height="1000" viewBox="0 0 1600 1000" fill="none" xmlns="http://www.w3.org/2000/svg">
  <rect width="1600" height="1000" fill="#74BCF7"/>
  <rect y="110" width="1600" height="220" fill="#97D6FF"/>
  <rect x="140" y="170" width="120" height="34" fill="#F8F5E8"/>
  <rect x="170" y="152" width="82" height="18" fill="#F8F5E8"/>
  <rect x="1206" y="148" width="146" height="40" fill="#F8F5E8"/>
  <rect x="1236" y="128" width="90" height="20" fill="#F8F5E8"/>
  <rect y="310" width="1600" height="140" fill="#9CD282"/>
  <rect y="450" width="1600" height="230" fill="#76B45D"/>
  <rect y="680" width="1600" height="320" fill="#4E833F"/>
  <rect x="0" y="624" width="1600" height="56" fill="#856440"/>
  <rect x="0" y="680" width="1600" height="24" fill="#6F522F"/>
  <rect x="104" y="560" width="272" height="176" fill="#C78855"/>
  <rect x="132" y="528" width="216" height="54" fill="#D99864"/>
  <rect x="156" y="498" width="168" height="32" fill="#F2C96B"/>
  <rect x="176" y="584" width="66" height="56" fill="#F6ECC8"/>
  <rect x="272" y="584" width="62" height="56" fill="#F6ECC8"/>
  <rect x="218" y="636" width="64" height="100" fill="#744628"/>
  <rect x="238" y="652" width="24" height="50" fill="#8E5A37"/>
  <rect x="428" y="584" width="78" height="88" fill="#8C633D"/>
  <rect x="446" y="560" width="42" height="24" fill="#AA7A4B"/>
  <rect x="458" y="620" width="14" height="52" fill="#6A432A"/>
  <rect x="610" y="556" width="414" height="210" fill="#BA7A4B"/>
  <rect x="648" y="512" width="336" height="72" fill="#D8945A"/>
  <rect x="684" y="474" width="264" height="38" fill="#F0C765"/>
  <rect x="694" y="606" width="84" height="58" fill="#F9E9B4"/>
  <rect x="856" y="606" width="84" height="58" fill="#F9E9B4"/>
  <rect x="778" y="664" width="84" height="102" fill="#6D4330"/>
  <rect x="798" y="684" width="44" height="44" fill="#916049"/>
  <rect x="744" y="520" width="164" height="38" fill="#6D5034"/>
  <rect x="760" y="532" width="132" height="10" fill="#ECD69B"/>
  <rect x="1076" y="572" width="250" height="132" fill="#6AA17C"/>
  <rect x="1100" y="548" width="202" height="40" fill="#8AC09B"/>
  <rect x="1126" y="594" width="150" height="26" fill="#D4F7E3"/>
  <rect x="1132" y="620" width="26" height="84" fill="#467559"/>
  <rect x="1318" y="534" width="110" height="138" fill="#A56C43"/>
  <rect x="1340" y="498" width="66" height="40" fill="#C88657"/>
  <rect x="1354" y="572" width="36" height="100" fill="#70492D"/>
  <rect x="1132" y="694" width="250" height="136" fill="#4599D8"/>
  <rect x="1160" y="672" width="220" height="30" fill="#9ED8FF"/>
  <rect x="1188" y="830" width="164" height="26" fill="#2E78B4"/>
  <rect x="502" y="708" width="440" height="72" fill="#D6B26B"/>
  <rect x="534" y="708" width="376" height="24" fill="#E6C67D"/>
  <rect x="552" y="732" width="338" height="20" fill="#C89F59"/>
  <rect x="552" y="752" width="356" height="28" fill="#B78F4F"/>
  <rect x="40" y="836" width="1516" height="164" fill="#36592A"/>
</svg>
