<svg width="1600" height="1000" viewBox="0 0 1600 1000" fill="none" xmlns="http://www.w3.org/2000/svg">
  <rect width="1600" height="1000" fill="#72B6F2"/>
  <rect y="250" width="1600" height="120" fill="#9BDEFF"/>
  <rect y="370" width="1600" height="120" fill="#88D06F"/>
  <rect y="490" width="1600" height="170" fill="#70BA5D"/>
  <rect y="660" width="1600" height="340" fill="#599648"/>

  <rect x="102" y="166" width="168" height="42" fill="#F8FCFF"/>
  <rect x="170" y="142" width="92" height="24" fill="#F8FCFF"/>
  <rect x="1198" y="150" width="188" height="42" fill="#F8FCFF"/>
  <rect x="1268" y="124" width="104" height="26" fill="#F8FCFF"/>
  <rect x="676" y="126" width="156" height="36" fill="#F8FCFF"/>
  <rect x="742" y="106" width="88" height="20" fill="#F8FCFF"/>

  <polygon points="136,588 370,588 320,548 86,548" fill="#D58E59"/>
  <polygon points="136,588 136,790 86,750 86,548" fill="#8B603A"/>
  <polygon points="136,588 370,588 370,790 136,790" fill="#B57949"/>
  <polygon points="162,548 344,548 302,500 120,500" fill="#F1C56A"/>
  <polygon points="202,500 300,500 270,464 172,464" fill="#825E3E"/>
  <rect x="178" y="636" width="60" height="58" fill="#FFF0D4"/>
  <rect x="264" y="636" width="56" height="58" fill="#FFF0D4"/>
  <rect x="228" y="690" width="48" height="100" fill="#654127"/>
  <rect x="244" y="708" width="18" height="44" fill="#8D5C39"/>

  <polygon points="446,698 500,698 490,688 436,688" fill="#D63B40"/>
  <polygon points="446,698 446,786 436,776 436,688" fill="#8F2326"/>
  <polygon points="446,698 500,698 500,786 446,786" fill="#B62E33"/>
  <polygon points="454,688 492,688 486,674 448,674" fill="#F05F64"/>
  <rect x="462" y="726" width="22" height="14" fill="#F7E2B2"/>

  <polygon points="884,522 1298,522 1242,480 828,480" fill="#A0B6CA"/>
  <polygon points="884,522 884,834 828,792 828,480" fill="#657D94"/>
  <polygon points="884,522 1298,522 1298,834 884,834" fill="#7F9CB3"/>
  <polygon points="934,480 1260,480 1218,446 892,446" fill="#4F6173"/>
  <rect x="940" y="556" width="60" height="64" fill="#E3F5FF"/>
  <rect x="1026" y="556" width="60" height="64" fill="#E3F5FF"/>
  <rect x="1112" y="556" width="60" height="64" fill="#E3F5FF"/>
  <rect x="1198" y="556" width="60" height="64" fill="#E3F5FF"/>
  <rect x="940" y="646" width="60" height="64" fill="#E3F5FF"/>
  <rect x="1026" y="646" width="60" height="64" fill="#E3F5FF"/>
  <rect x="1112" y="646" width="60" height="64" fill="#E3F5FF"/>
  <rect x="1198" y="646" width="60" height="64" fill="#E3F5FF"/>
  <rect x="1062" y="716" width="74" height="118" fill="#41586C"/>
  <rect x="872" y="844" width="434" height="24" fill="#465B6E"/>

  <polygon points="70,770 172,770 150,744 48,744" fill="#74C36C"/>
  <polygon points="70,770 70,900 48,874 48,744" fill="#4B7D43"/>
  <polygon points="70,770 172,770 172,900 70,900" fill="#5BA451"/>
  <polygon points="92,744 152,744 136,724 76,724" fill="#90DF86"/>
  <rect x="106" y="900" width="28" height="64" fill="#65482A"/>

  <polygon points="1392,770 1492,770 1470,744 1370,744" fill="#74C36C"/>
  <polygon points="1392,770 1392,900 1370,874 1370,744" fill="#4B7D43"/>
  <polygon points="1392,770 1492,770 1492,900 1392,900" fill="#5BA451"/>
  <polygon points="1412,744 1472,744 1456,724 1396,724" fill="#90DF86"/>
  <rect x="1426" y="900" width="28" height="64" fill="#65482A"/>
</svg>
