<svg width="1600" height="1000" viewBox="0 0 1600 1000" fill="none" xmlns="http://www.w3.org/2000/svg">
  <rect width="1600" height="1000" fill="#72B6F2"/>
  <rect y="250" width="1600" height="120" fill="#9BDEFF"/>
  <rect y="370" width="1600" height="120" fill="#88D06F"/>
  <rect y="490" width="1600" height="170" fill="#70BA5D"/>
  <rect y="660" width="1600" height="340" fill="#599648"/>

  <rect x="102" y="166" width="168" height="42" fill="#F8FCFF"/>
  <rect x="170" y="142" width="92" height="24" fill="#F8FCFF"/>
  <rect x="1198" y="150" width="188" height="42" fill="#F8FCFF"/>
  <rect x="1268" y="124" width="104" height="26" fill="#F8FCFF"/>
  <rect x="676" y="126" width="156" height="36" fill="#F8FCFF"/>
  <rect x="742" y="106" width="88" height="20" fill="#F8FCFF"/>

  <polygon points="744,414 842,414 826,398 728,398" fill="#D7D0C4"/>
  <polygon points="744,414 744,646 728,630 728,398" fill="#9A948A"/>
  <polygon points="744,414 842,414 842,646 744,646" fill="#B8B1A7"/>
  <polygon points="770,370 816,370 810,364 764,364" fill="#CFB97A"/>
  <polygon points="770,370 770,414 764,408 764,364" fill="#A18D56"/>
  <polygon points="770,370 816,370 816,414 770,414" fill="#BFA86A"/>
  <polygon points="756,646 830,646 820,634 746,634" fill="#D6CCBE"/>
  <polygon points="756,646 756,694 746,684 746,634" fill="#9B9386"/>
  <polygon points="756,646 830,646 830,694 756,694" fill="#B8B0A5"/>

  <polygon points="136,588 370,588 320,548 86,548" fill="#D58E59"/>
  <polygon points="136,588 136,790 86,750 86,548" fill="#8B603A"/>
  <polygon points="136,588 370,588 370,790 136,790" fill="#B57949"/>
  <polygon points="162,548 344,548 302,500 120,500" fill="#F1C56A"/>
  <polygon points="202,500 300,500 270,464 172,464" fill="#825E3E"/>
  <rect x="178" y="636" width="60" height="58" fill="#FFF0D4"/>
  <rect x="264" y="636" width="56" height="58" fill="#FFF0D4"/>
  <rect x="228" y="690" width="48" height="100" fill="#654127"/>
  <rect x="244" y="708" width="18" height="44" fill="#8D5C39"/>

  <polygon points="286,662 332,662 322,652 276,652" fill="#C81F2A"/>
  <polygon points="286,662 286,758 276,748 276,652" fill="#8D1620"/>
  <polygon points="286,662 332,662 332,758 286,758" fill="#A81B26"/>
  <polygon points="292,652 326,652 320,640 286,640" fill="#E6424D"/>
  <rect x="302" y="694" width="16" height="12" fill="#F6D7A0"/>

  <polygon points="910,500 1300,500 1248,462 858,462" fill="#A0B6CA"/>
  <polygon points="910,500 910,814 858,776 858,462" fill="#657D94"/>
  <polygon points="910,500 1300,500 1300,814 910,814" fill="#7F9CB3"/>
  <polygon points="954,462 1260,462 1222,432 916,432" fill="#4F6173"/>
  <rect x="962" y="532" width="60" height="62" fill="#E3F5FF"/>
  <rect x="1044" y="532" width="60" height="62" fill="#E3F5FF"/>
  <rect x="1126" y="532" width="60" height="62" fill="#E3F5FF"/>
  <rect x="1208" y="532" width="60" height="62" fill="#E3F5FF"/>
  <rect x="962" y="620" width="60" height="62" fill="#E3F5FF"/>
  <rect x="1044" y="620" width="60" height="62" fill="#E3F5FF"/>
  <rect x="1126" y="620" width="60" height="62" fill="#E3F5FF"/>
  <rect x="1208" y="620" width="60" height="62" fill="#E3F5FF"/>
  <rect x="1068" y="690" width="78" height="124" fill="#41586C"/>
  <rect x="898" y="824" width="414" height="24" fill="#465B6E"/>

  <polygon points="70,770 172,770 150,744 48,744" fill="#74C36C"/>
  <polygon points="70,770 70,900 48,874 48,744" fill="#4B7D43"/>
  <polygon points="70,770 172,770 172,900 70,900" fill="#5BA451"/>
  <polygon points="92,744 152,744 136,724 76,724" fill="#90DF86"/>
  <rect x="106" y="900" width="28" height="64" fill="#65482A"/>

  <polygon points="1392,770 1492,770 1470,744 1370,744" fill="#74C36C"/>
  <polygon points="1392,770 1392,900 1370,874 1370,744" fill="#4B7D43"/>
  <polygon points="1392,770 1492,770 1492,900 1392,900" fill="#5BA451"/>
  <polygon points="1412,744 1472,744 1456,724 1396,724" fill="#90DF86"/>
  <rect x="1426" y="900" width="28" height="64" fill="#65482A"/>

  <rect x="172" y="838" width="16" height="14" fill="#FF6E6E"/>
  <rect x="188" y="848" width="16" height="14" fill="#FFE47F"/>
  <rect x="204" y="838" width="16" height="14" fill="#7FD7FF"/>
  <rect x="1228" y="834" width="16" height="14" fill="#FF6E6E"/>
  <rect x="1246" y="846" width="16" height="14" fill="#FFE47F"/>
  <rect x="1264" y="834" width="16" height="14" fill="#7FD7FF"/>
</svg>
